# xmcd
#
# Track frame offsets: 
#        150
#        10923
#        24620
#        35309
#        47049
#        56956
#        68769
#        77413
#        89796
#        102056
#        114767
#        124657
#        138535
#        148206
#        160225
#        172060
#        183195
#        196553
#        207018
#        215299
#        226732
#
# Disc length: 3107 seconds
#
# Revision: 0
# Processed by: cddbd v1.5.2PL0 Copyright (c) Steve Scherf et al.
# Submitted via: ExactAudioCopy v0.95b3
#
DISCID=190c2115
DTITLE=The Beatles  - Beatles For Sale - Disc 1 - stereo  FLAC
DYEAR=1900
DGENRE=
TTITLE0=I Feel Fine
TTITLE1=She's A Woman
TTITLE2=No Reply
TTITLE3=I'm A Loser
TTITLE4=Baby's In Black
TTITLE5=Rock And Roll Music
TTITLE6=I'll Follow The Sun
TTITLE7=Mr. Moonlight
TTITLE8=Kansas City (Hey Hey Hey)
TTITLE9=Eight Days A Week
TTITLE10=Words Of Love
TTITLE11=Honey Don't
TTITLE12=Every Little Thing
TTITLE13=I Don't Want To Spoil The Party
TTITLE14=What You're Doing
TTITLE15=Everybody's Trying To Be My Baby
TTITLE16=Leave My Kitten Alone
TTITLE17=I Feel Fine - anthology mix
TTITLE18=I'll Follow The Sun - anthology mix
TTITLE19=Rock And Roll Music - anthology mix
TTITLE20=Eight Days A Week - anthology mix
EXTD=
EXTT0=
EXTT1=
EXTT2=
EXTT3=
EXTT4=
EXTT5=
EXTT6=
EXTT7=
EXTT8=
EXTT9=
EXTT10=
EXTT11=
EXTT12=
EXTT13=
EXTT14=
EXTT15=
EXTT16=
EXTT17=
EXTT18=
EXTT19=
EXTT20=
PLAYORDER=
